<svg width="75" height="75" viewBox="0 0 75 75" fill="none" xmlns="http://www.w3.org/2000/svg">
<g filter="url(#filter0_d_67_2)">
<circle cx="37.5" cy="33.5" r="33.5" fill="#220728"/>
</g>
<path d="M48.0469 50.8L35.9531 36.175C35.2344 36.475 34.5156 36.7188 33.7969 36.9063C33.0781 37.0938 32.3437 37.1875 31.5937 37.1875C28.5625 37.1875 25.9844 35.9219 23.8594 33.3906C21.7344 30.8594 20.6719 27.775 20.6719 24.1375C20.6719 22.975 20.7969 21.8406 21.0469 20.7344C21.2969 19.6281 21.6562 18.5875 22.125 17.6125L28.9219 25.7688L33.2344 20.9313L26.25 12.55C27.0625 11.9875 27.9219 11.5469 28.8281 11.2281C29.7344 10.9094 30.6562 10.75 31.5937 10.75C34.6875 10.75 37.3203 12.0531 39.4922 14.6594C41.6641 17.2656 42.75 20.425 42.75 24.1375C42.75 25.0375 42.6719 25.9188 42.5156 26.7813C42.3594 27.6438 42.1563 28.5063 41.9063 29.3688L54.0469 43.8813C54.3906 44.2938 54.5625 44.7906 54.5625 45.3719C54.5625 45.9531 54.3906 46.45 54.0469 46.8625L50.4844 50.8C50.1406 51.2125 49.7344 51.4188 49.2656 51.4188C48.7969 51.4188 48.3906 51.2125 48.0469 50.8V50.8ZM49.3594 47.5938L51.2344 45.3438L38.4375 29.9875C38.9375 29.2 39.3125 28.2719 39.5625 27.2031C39.8125 26.1344 39.9375 25.1125 39.9375 24.1375C39.9375 21.325 39.0703 18.9438 37.3359 16.9938C35.6016 15.0438 33.625 14.05 31.4062 14.0125L36.1406 19.8063C36.4219 20.1438 36.5625 20.5563 36.5625 21.0438C36.5625 21.5313 36.4219 21.9438 36.1406 22.2813L29.9531 29.2563C29.6719 29.5938 29.3281 29.7625 28.9219 29.7625C28.5156 29.7625 28.1719 29.5938 27.8906 29.2563L23.3437 23.8563C23.4375 26.7438 24.2891 29.125 25.8984 31C27.5078 32.875 29.4063 33.8125 31.5937 33.8125C32.375 33.8125 33.2031 33.6625 34.0781 33.3625C34.9531 33.0625 35.7187 32.6125 36.375 32.0125L49.3594 47.5938Z" fill="#F8F8F8"/>
<defs>
<filter id="filter0_d_67_2" x="0" y="0" width="75" height="75" filterUnits="userSpaceOnUse" color-interpolation-filters="sRGB">
<feFlood flood-opacity="0" result="BackgroundImageFix"/>
<feColorMatrix in="SourceAlpha" type="matrix" values="0 0 0 0 0 0 0 0 0 0 0 0 0 0 0 0 0 0 127 0" result="hardAlpha"/>
<feOffset dy="4"/>
<feGaussianBlur stdDeviation="2"/>
<feComposite in2="hardAlpha" operator="out"/>
<feColorMatrix type="matrix" values="0 0 0 0 0 0 0 0 0 0 0 0 0 0 0 0 0 0 0.25 0"/>
<feBlend mode="normal" in2="BackgroundImageFix" result="effect1_dropShadow_67_2"/>
<feBlend mode="normal" in="SourceGraphic" in2="effect1_dropShadow_67_2" result="shape"/>
</filter>
</defs>
</svg>
