<svg width="75" height="75" viewBox="0 0 75 75" fill="none" xmlns="http://www.w3.org/2000/svg">
<g filter="url(#filter0_d_69_4)">
<circle cx="37.5" cy="33.5" r="33.5" fill="#220728"/>
</g>
<path d="M24.5833 44.375V47.1875C24.5833 47.6389 24.4476 48.0122 24.176 48.3073C23.9045 48.6024 23.5611 48.75 23.1458 48.75H22.1875C21.7722 48.75 21.4288 48.6024 21.1573 48.3073C20.8858 48.0122 20.75 47.6389 20.75 47.1875V30.3125L24.8229 16.9792C24.9826 16.4931 25.2462 16.1111 25.6135 15.8333C25.9809 15.5556 26.4042 15.4167 26.8833 15.4167H49.1167C49.5958 15.4167 50.0191 15.5556 50.3865 15.8333C50.7538 16.1111 51.0174 16.4931 51.1771 16.9792L55.25 30.3125V47.1875C55.25 47.6389 55.1142 48.0122 54.8427 48.3073C54.5712 48.6024 54.2278 48.75 53.8125 48.75H52.8063C52.391 48.75 52.0556 48.6024 51.8 48.3073C51.5444 48.0122 51.4167 47.6389 51.4167 47.1875V44.375H24.5833ZM24.7271 27.1875H51.2729L48.6375 18.5417H27.3625L24.7271 27.1875ZM23.625 30.3125V41.25V30.3125ZM28.7042 38.6458C29.4389 38.6458 30.0538 38.3681 30.549 37.8125C31.0441 37.2569 31.2917 36.5972 31.2917 35.8333C31.2917 35.0347 31.0441 34.349 30.549 33.776C30.0538 33.2031 29.4389 32.9167 28.7042 32.9167C27.9694 32.9167 27.3385 33.2031 26.8115 33.776C26.2844 34.349 26.0208 35.0347 26.0208 35.8333C26.0208 36.6319 26.2844 37.3003 26.8115 37.8385C27.3385 38.3767 27.9694 38.6458 28.7042 38.6458ZM47.3438 38.6458C48.0785 38.6458 48.7094 38.3681 49.2365 37.8125C49.7635 37.2569 50.0271 36.5972 50.0271 35.8333C50.0271 35.0347 49.7635 34.349 49.2365 33.776C48.7094 33.2031 48.0785 32.9167 47.3438 32.9167C46.609 32.9167 45.9941 33.2031 45.499 33.776C45.0038 34.349 44.7562 35.0347 44.7562 35.8333C44.7562 36.6319 45.0118 37.3003 45.5229 37.8385C46.034 38.3767 46.641 38.6458 47.3438 38.6458ZM23.625 41.25H52.375V30.3125H23.625V41.25Z" fill="#F8F8F8"/>
<defs>
<filter id="filter0_d_69_4" x="0" y="0" width="75" height="75" filterUnits="userSpaceOnUse" color-interpolation-filters="sRGB">
<feFlood flood-opacity="0" result="BackgroundImageFix"/>
<feColorMatrix in="SourceAlpha" type="matrix" values="0 0 0 0 0 0 0 0 0 0 0 0 0 0 0 0 0 0 127 0" result="hardAlpha"/>
<feOffset dy="4"/>
<feGaussianBlur stdDeviation="2"/>
<feComposite in2="hardAlpha" operator="out"/>
<feColorMatrix type="matrix" values="0 0 0 0 0 0 0 0 0 0 0 0 0 0 0 0 0 0 0.25 0"/>
<feBlend mode="normal" in2="BackgroundImageFix" result="effect1_dropShadow_69_4"/>
<feBlend mode="normal" in="SourceGraphic" in2="effect1_dropShadow_69_4" result="shape"/>
</filter>
</defs>
</svg>
